{"title":"Benji.the.Hunted.1987.720p Eng.HD.mp4","uid":13568271,"size":939561128,"categoryP":"video","categoryS":"hd___movies","magnet":"?xt=urn:btih:c01d9de1de2396214f9d0ec611c9e8092e44de39&amp;dn=Benji.the.Hunted.1987.720p+Eng.HD.mp4&amp;tr=udp%3A%2F%2Ftracker.leechers-paradise.org%3A6969&amp;tr=udp%3A%2F%2Fzer0day.ch%3A1337&amp;tr=udp%3A%2F%2Fopen.demonii.com%3A1337&amp;tr=udp%3A%2F%2Ftracker.coppersurfer.tk%3A6969&amp;tr=udp%3A%2F%2Fexodus.desync.com%3A6969","seeders":0,"leechers":2,"uploader":"mico77","files":1,"time":1455652759,"description":"In this children film Benji the Hunted, the show dog Benji is lost at sea and winds up in the wilderness of Oregon to fend for himself. Benji's one and only plan is to get back into his master's arms as soon as possible, until he finds four orphaned cougar kittens whose mother was shot by a hunter. Now his ultimate task is to get the four orphaned kittens into the care of another mother cougar with her single child while avoiding the threatening animals of the wild\r\n\r\n\r\nFormat                           : MPEG-4\r\nFormat profile                   : Base Media / Version 2\r\nCodec ID                         : mp42\r\nFile size                        : 896 MiB\r\nDuration                         : 1h 29mn\r\nOverall bit rate                 : 1 403 Kbps\r\n\r\nVideo\r\nID                               : 1\r\nFormat                           : AVC\r\nFormat/Info                      : Advanced Video Codec\r\nFormat profile                   :   \r\nFormat settings, CABAC           : Yes\r\nFormat settings, ReFrames        : 8 frames\r\nCodec ID                         : avc1\r\nCodec ID/Info                    : Advanced Video Coding\r\nDuration                         : 1h 29mn\r\nBit rate mode                    : Variable\r\nBit rate                         : 1 321 Kbps\r\nWidth                            : 1 280 pixels\r\nHeight                           : 688 pixels\r\nDisplay aspect ratio             : 1.860\r\nFrame rate mode                  : Variable\r\nFrame rate                       : 23.976 fps\r\nMinimum frame rate               : 23.974 fps\r\nMaximum frame rate               : 23.981 fps\r\nColor space                      : YUV\r\nChroma subsampling               : 4:2:0\r\nBit depth                        : 8 bits\r\nScan type                        : Progressive\r\nBits/(Pixel*Frame)               : 0.063\r\nStream size                      : 844 MiB (94%)\r\nWriting library                  : x264 core 148 r2638 7599210\r\n\r\nAudio\r\nID                               : 2\r\nFormat                           : AAC\r\nFormat/Info                      : Advanced Audio Codec\r\nFormat profile                   : HE-AAC / LC\r\nCodec ID                         : 40\r\nDuration                         : 1h 29mn\r\nBit rate mode                    : Variable\r\nBit rate                         : 77.1 Kbps\r\nChannel(s)                       : 2 channels\r\nChannel positions                : Front: L R\r\nSampling rate                    : 48.0 KHz / 24.0 KHz\r\nCompression mode                 : Lossy\r\nStream size                      : 49.3 MiB (5%)\r\nLanguage                         : English","torrent":{"xt":"urn:btih:c01d9de1de2396214f9d0ec611c9e8092e44de39","amp;dn":"Benji.the.Hunted.1987.720p+Eng.HD.mp4","amp;tr":["udp%3A%2F%2Ftracker.leechers-paradise.org%3A6969","udp%3A%2F%2Fzer0day.ch%3A1337","udp%3A%2F%2Fopen.demonii.com%3A1337","udp%3A%2F%2Ftracker.coppersurfer.tk%3A6969","udp%3A%2F%2Fexodus.desync.com%3A6969"],"infoHash":"c01d9de1de2396214f9d0ec611c9e8092e44de39","infoHashBuffer":{"type":"Buffer","data":[192,29,157,225,222,35,150,33,79,157,14,198,17,201,232,9,46,68,222,57]},"announce":[],"urlList":[]}}